<?xml version="1.0" encoding="UTF-8"?>
<svg xmlns="http://www.w3.org/2000/svg" width="41" height="41" viewBox="0 0 41 41" fill="none">
  <path d="M20.6001 1C24.4766 1 28.2661 2.14952 31.4893 4.3032C34.7125 6.45687 37.2246 9.51797 38.7081 13.0994C40.1916 16.6808 40.5797 20.6217 39.8235 24.4238C39.0672 28.2258 37.2005 31.7182 34.4594 34.4593C31.7183 37.2004 28.2259 39.0671 24.4238 39.8234C20.6218 40.5797 16.6809 40.1915 13.0995 38.708C9.51805 37.2246 6.45695 34.7124 4.30327 31.4892C2.1496 28.266 1.00008 24.4765 1.00008 20.6C0.98547 15.4165 3.03054 10.4395 6.68541 6.76382C10.3403 3.08813 15.3056 1.01483 20.4891 1L20.6001 1Z" fill="#ED4040" stroke="#FF4D5F"></path>
  <path d="M13.4868 12.526L30.1458 29.201" stroke="white" stroke-width="3"></path>
  <path d="M27.9422 12.3149L11.0562 29.2009" stroke="white" stroke-width="3"></path>
</svg>
