<?xml version="1.0" encoding="UTF-8"?>
<svg xmlns="http://www.w3.org/2000/svg" width="40" height="40" viewBox="0 0 40 40" fill="none">
  <path d="M19.6001 0C23.4766 0 27.2661 1.14952 30.4893 3.3032C33.7125 5.45687 36.2246 8.51797 37.7081 12.0994C39.1916 15.6808 39.5797 19.6217 38.8235 23.4238C38.0672 27.2258 36.2005 30.7182 33.4594 33.4593C30.7183 36.2004 27.2259 38.0671 23.4238 38.8234C19.6218 39.5797 15.6809 39.1915 12.0995 37.708C8.51805 36.2246 5.45695 33.7124 3.30327 30.4892C1.1496 27.266 7.77212e-05 23.4765 7.77212e-05 19.6C-0.01453 14.4165 2.03054 9.43951 5.68541 5.76382C9.34028 2.08813 14.3056 0.0148311 19.4891 0L19.6001 0Z" fill="#FFAF00"></path>
  <path d="M30.4598 14.1991L16.5388 28.1201L8.73877 20.3801L11.9128 17.2621L16.5348 21.828L27.2818 11.0811L30.4598 14.1991Z" fill="white"></path>
</svg>
