<?xml version="1.0" encoding="UTF-8"?>
<svg xmlns="http://www.w3.org/2000/svg" width="44" height="38" viewBox="0 0 44 38" fill="none">
  <path d="M26.6908 2.80016C26.1762 1.94586 25.4495 1.23909 24.5812 0.748458C23.7129 0.257828 22.7326 0 21.7353 0C20.738 0 19.7576 0.257828 18.8893 0.748458C18.021 1.23909 17.2943 1.94586 16.7798 2.80016L0.843769 28.8332C0.309226 29.7131 0.0183055 30.7193 0.000835972 31.7487C-0.0166336 32.7781 0.239976 33.7936 0.744355 34.6911C1.24873 35.5886 1.98273 36.3358 2.8711 36.8562C3.75947 37.3765 4.77023 37.6512 5.79977 37.6522H37.6748C38.7043 37.6512 39.7151 37.3765 40.6034 36.8562C41.4918 36.3358 42.2258 35.5886 42.7302 34.6911C43.2346 33.7936 43.4912 32.7781 43.4737 31.7487C43.4562 30.7193 43.1653 29.7131 42.6308 28.8332L26.6908 2.80016Z" fill="#ED4040"></path>
  <path d="M21.7358 24.5442C21.335 24.539 20.9522 24.3775 20.6688 24.0941C20.3854 23.8107 20.2239 23.4279 20.2188 23.0272V13.9272C20.2188 13.5248 20.3786 13.139 20.6631 12.8545C20.9476 12.57 21.3334 12.4102 21.7358 12.4102C22.1381 12.4102 22.5239 12.57 22.8084 12.8545C23.0929 13.139 23.2528 13.5248 23.2528 13.9272V23.0272C23.2476 23.4279 23.0861 23.8107 22.8027 24.0941C22.5193 24.3775 22.1365 24.539 21.7358 24.5442Z" fill="white"></path>
  <path d="M21.7359 30.1072C22.8532 30.1072 23.7589 29.2014 23.7589 28.0842C23.7589 26.9669 22.8532 26.0612 21.7359 26.0612C20.6186 26.0612 19.7129 26.9669 19.7129 28.0842C19.7129 29.2014 20.6186 30.1072 21.7359 30.1072Z" fill="white"></path>
</svg>
